<svg width="768" height="768" viewBox="0 0 768 768" fill="none" xmlns="http://www.w3.org/2000/svg">
<path d="M384 768C333.572 768 283.639 758.068 237.05 738.77C190.46 719.472 148.129 691.187 112.471 655.529C76.8133 619.871 48.528 577.539 29.2302 530.95C9.93243 484.361 -1.34257e-05 434.427 0 384C1.34257e-05 333.572 9.93248 283.638 29.2303 237.049C48.5281 190.46 76.8134 148.129 112.471 112.471C148.129 76.8132 190.461 48.528 237.05 29.2302C283.639 9.93241 333.573 -2.46471e-05 384 0L384 384L384 768Z" fill="#5856D7"/>
<path d="M384 768C434.428 768 484.361 758.068 530.95 738.77C577.539 719.472 619.871 691.187 655.529 655.529C691.187 619.871 719.472 577.539 738.77 530.95C758.068 484.361 768 434.428 768 384L384 384L384 768Z" fill="#04C7BE"/>
<path d="M384 0C434.428 0 484.361 9.93243 530.95 29.2303C577.539 48.5281 619.871 76.8133 655.529 112.471C691.187 148.129 719.472 190.461 738.77 237.05C758.068 283.639 768 333.572 768 384L384 384L384 0Z" fill="#59ADC4"/>
<path d="M384 0C434.428 0 484.361 9.93243 530.95 29.2303C577.539 48.5281 619.871 76.8133 655.529 112.471C691.187 148.129 719.472 190.461 738.77 237.05C758.068 283.639 768 333.572 768 384L384 384L384 0Z" fill="#59ADC4"/>
<path d="M194.094 194.094C223.969 164.219 272.406 164.219 302.281 194.094L573.81 465.623C603.685 495.498 603.685 543.935 573.81 573.81C543.935 603.685 495.498 603.685 465.623 573.81L194.094 302.281C164.219 272.406 164.219 223.969 194.094 194.094Z" fill="white"/>
<line x1="322.929" y1="431.116" x2="431.116" y2="322.929" stroke="#59ADC4" stroke-width="20"/>
</svg>
