<svg width="1024" height="1024" viewBox="0 0 1024 1024" fill="none" xmlns="http://www.w3.org/2000/svg">
<rect width="1024" height="1024" rx="3" fill="#065808"/>
<rect x="112" y="647" width="800" height="171.429" rx="20" fill="#F5F5F5"/>
<rect x="112" y="426" width="800" height="171.429" rx="20" fill="#F5F5F5"/>
<rect x="112" y="205" width="800" height="171.429" rx="20" fill="#F5F5F5"/>
<path d="M687.387 341C715.498 341 738.773 318.304 738.773 291C738.773 263.647 715.448 241 687.336 241C659.275 241 636 263.647 636 291C636 318.304 659.326 341 687.387 341ZM667.084 295.314C664.112 295.314 662.096 293.794 662.096 291.098C662.096 288.353 664.011 286.784 667.084 286.784H707.79C710.813 286.784 712.677 288.353 712.677 291.098C712.677 293.794 710.712 295.314 707.79 295.314H667.084Z" fill="#065808"/>
<path d="M840.387 341C868.498 341 891.773 318.304 891.773 291C891.773 263.647 868.448 241 840.336 241C812.275 241 789 263.647 789 291C789 318.304 812.326 341 840.387 341ZM815.802 291.049C815.802 288.5 817.615 286.735 820.235 286.735H836.004V271.392C836.004 268.843 837.767 267.029 840.336 267.029C842.956 267.029 844.77 268.843 844.77 271.392V286.735H860.589C863.158 286.735 865.022 288.5 865.022 291.049C865.022 293.549 863.158 295.216 860.589 295.216H844.77V310.608C844.77 313.157 842.956 314.921 840.336 314.921C837.767 314.921 836.004 313.108 836.004 310.608V295.216H820.235C817.615 295.216 815.802 293.549 815.802 291.049Z" fill="#065808"/>
<path d="M840.41 562C868.534 562 891.819 539.304 891.819 512C891.819 484.647 868.483 462 840.359 462C812.286 462 789 484.647 789 512C789 539.304 812.336 562 840.41 562ZM834.765 535.971C833.051 535.971 831.64 535.284 830.329 533.569L817.678 518.471C816.922 517.49 816.469 516.412 816.469 515.284C816.469 513.078 818.233 511.265 820.501 511.265C821.963 511.265 823.071 511.706 824.331 513.323L834.563 526.167L856.084 492.539C857.042 491.069 858.353 490.284 859.663 490.284C861.881 490.284 863.947 491.755 863.947 494.059C863.947 495.137 863.292 496.265 862.687 497.294L838.998 533.569C837.94 535.186 836.478 535.971 834.765 535.971Z" fill="#065808"/>
</svg>
